<svg width="73" height="60" viewBox="0 0 73 60" fill="none" xmlns="http://www.w3.org/2000/svg">
<g clip-path="url(#clip0_62_2745)">
<path d="M36.1409 0C16.8057 0 1.65754 24.6 0.224304 45.3775C6.29191 55.9079 20.9237 59.8662 36.1415 59.8662C51.3581 59.8662 65.9908 55.9079 72.0553 45.3772C70.6218 24.6 55.4756 0 36.1412 0" fill="#B6DEFF"/>
<path d="M67.0027 40.4282C67.0027 40.4282 62.7323 31.1956 58.3918 25.8091C54.0481 20.4203 48.7436 14.5527 45.6072 14.5527C42.4726 14.5527 33.7098 30.0677 29.6898 30.0677C25.6689 30.0677 23.5794 23.0344 18.636 23.0344C13.6906 23.0344 5.83372 39.9947 5.83372 39.9947L5.30133 42.8699C5.30133 42.8699 8.03091 54.9716 36.587 54.9716C65.1441 54.9716 67.4264 43.0685 67.4264 43.0685L67.003 40.4279" fill="#66CC66"/>
<path d="M30.1373 36.6886C25.7024 36.6886 23.4289 32.3128 22.1962 29.6117C21.0878 27.1784 20.8959 23.3368 17.7509 23.2291C18.0599 23.1066 18.3573 23.0342 18.6362 23.0342C23.5796 23.0342 25.6692 30.0675 29.69 30.0675C33.71 30.0675 42.4728 14.5522 45.6075 14.5522C46.1982 14.5522 46.8635 14.7607 47.5855 15.1314C47.0514 15.061 46.3666 15.11 45.839 15.6393C44.8258 16.6528 35.6278 36.6886 30.1373 36.6886Z" fill="#17AD49"/>
</g>
<defs>
<clipPath id="clip0_62_2745">
<rect width="72.1127" height="60" fill="white"/>
</clipPath>
</defs>
</svg>
